<svg viewBox="0 0 1536 1024" width="1536" height="1024" xmlns="http://www.w3.org/2000/svg" role="img">
  <title>43.21 task 2 Missions surface — legacy history notice at 1536x1024</title>
  <desc>A migrated Project. The retained history is stated once, as static text with no link and no action - it is never reopened as a current mission or rendered as a transcript. Workbench theme, light mode; the named token map owns the dark values. 1536x1024.</desc>
  <rect x="0" y="0" width="1536" height="1024" fill="#f7faff"/>
  <rect x="0" y="0" width="180" height="1024" fill="#06284c"/>
  <text x="20" y="44" font-family="system-ui, sans-serif" font-size="28" font-weight="700" fill="#ffffff">Forge</text>
  <text x="20" y="66" font-family="system-ui, sans-serif" font-size="13" fill="#b9d6f5">AI Workbench</text>
  <text x="26" y="180" font-family="system-ui, sans-serif" font-size="19" fill="#b9d6f5">□</text>
  <text x="26" y="204" font-family="system-ui, sans-serif" font-size="14" fill="#b9d6f5">Project Explorer</text>
  <rect x="6" y="224" width="168" height="62" rx="8" fill="#0c4475"/>
  <rect x="6" y="224" width="4" height="62" rx="2" fill="#32d9f2"/>
  <text x="26" y="252" font-family="system-ui, sans-serif" font-size="19" fill="#ffffff">◎</text>
  <text x="26" y="276" font-family="system-ui, sans-serif" font-size="14" font-weight="600" fill="#ffffff">Missions</text>
  <text x="26" y="978" font-family="system-ui, sans-serif" font-size="19" fill="#b9d6f5">⚙</text>
  <text x="26" y="1002" font-family="system-ui, sans-serif" font-size="14" fill="#b9d6f5">Settings</text>
  <rect x="180" y="0" width="1356" height="1024" fill="#ffffff"/>
  <line x1="180" y1="0" x2="180" y2="1024" stroke="#d5dae5"/>
  <rect x="180" y="0" width="1356" height="97" fill="#f6f8fd"/>
  <line x1="180" y1="97" x2="1536" y2="97" stroke="#d5dae5"/>
  <text x="204" y="46" font-family="system-ui, sans-serif" font-size="22" font-weight="700" fill="#101d33">Missions</text>
  <text x="204" y="70" font-family="ui-monospace, monospace" font-size="12" fill="#5b6b83">Release planner</text>
  <rect x="204" y="121" width="1308" height="40" rx="10" fill="#f7faff" stroke="#d5dae5" stroke-dasharray="4 3"/>
  <text x="218" y="146.0" font-family="system-ui, sans-serif" font-size="13" fill="#5b6b83">This Project has earlier legacy history. It is retained and is not shown here.</text>
  <text x="858.0" y="562.5" font-family="system-ui, sans-serif" font-size="14" text-anchor="middle" fill="#62748c">Run a mission to see its activity here.</text>
  <rect x="180" y="940" width="1356" height="84" fill="#f7faff"/>
  <line x1="180" y1="940" x2="1536" y2="940" stroke="#e7ecf4"/>
  <rect x="204" y="959.0" width="190" height="46" rx="10" fill="#ffffff" stroke="#e7ecf4"/>
  <text x="216" y="987.0" font-family="system-ui, sans-serif" font-size="12" fill="#101d33">Mission: Janus</text>
  <text x="382" y="986.0" font-family="system-ui, sans-serif" font-size="10" text-anchor="end" fill="#5b6b83">▾</text>
  <rect x="406" y="959.0" width="962" height="46" rx="10" fill="#ffffff" stroke="#e7ecf4"/>
  <text x="418" y="987.0" font-family="system-ui, sans-serif" font-size="13" fill="#62748c">What should this mission do?</text>
  <rect x="1380" y="961.0" width="132" height="42" rx="21.0" fill="#e4ecf8"/>
  <text x="1446.0" y="987.0" font-family="system-ui, sans-serif" font-size="13" font-weight="600" text-anchor="middle" fill="#62748c">Run</text>
</svg>
